PathFileType	4	(X/Y/Z)	/Users/itak/Documents/Research/Walk-IL/dataset/trc/00198_00008.trc
DataRate	CameraRate	NumFrames	NumMarkers	Units	OrigDataRate	OrigDataStartFrame	OrigNumFrames
100.000000	100.000000	4	53	mm	100.000000	337	540
Frame#	Time	RPSI			LPSI			L3			STRN			T10			C7			CLAV			RBAK			LBAK			LSHO			LUPA			LAEL			LAOL			LWTS			LWPS			LFRA			LIFD			LHPS			LHTS			RSHO			RUPA			RAEL			RAOL			RWTS			RWPS			RFRA			RIFD			RHTS			RHPS			RBHD			LFHD			RFHD			LBHD			LHIP			RHIP			RASI			LASI			LKNE			LTHI			LANK			LTIP			LTOE			LMT1			LMT5			LHEE			RKNE			RTHI			RANK			RTIP			RTOE			RMT1			RMT5			RHEE			
		X1	Y1	Z1	X2	Y2	Z2	X3	Y3	Z3	X4	Y4	Z4	X5	Y5	Z5	X6	Y6	Z6	X7	Y7	Z7	X8	Y8	Z8	X9	Y9	Z9	X10	Y10	Z10	X11	Y11	Z11	X12	Y12	Z12	X13	Y13	Z13	X14	Y14	Z14	X15	Y15	Z15	X16	Y16	Z16	X17	Y17	Z17	X18	Y18	Z18	X19	Y19	Z19	X20	Y20	Z20	X21	Y21	Z21	X22	Y22	Z22	X23	Y23	Z23	X24	Y24	Z24	X25	Y25	Z25	X26	Y26	Z26	X27	Y27	Z27	X28	Y28	Z28	X29	Y29	Z29	X30	Y30	Z30	X31	Y31	Z31	X32	Y32	Z32	X33	Y33	Z33	X34	Y34	Z34	X35	Y35	Z35	X36	Y36	Z36	X37	Y37	Z37	X38	Y38	Z38	X39	Y39	Z39	X40	Y40	Z40	X41	Y41	Z41	X42	Y42	Z42	X43	Y43	Z43	X44	Y44	Z44	X45	Y45	Z45	X46	Y46	Z46	X47	Y47	Z47	X48	Y48	Z48	X49	Y49	Z49	X50	Y50	Z50	X51	Y51	Z51	X52	Y52	Z52	X53	Y53	Z53	

338	3.37	103.9423141479492	1015.534484863281	136.8191986083984	208.0633392333984	1023.851745605469	67.9991455078125	155.9417877197266	1056.367309570312	102.8576965332031	284.8704833984375	1266.38037109375	332.7050170898438	150.9082641601562	1215.022705078125	63.01140594482422	189.1969604492188	1483.279907226562	124.7845230102539	275.1311950683594	1380.41015625	306.9537963867188	65.53544616699219	1305.604858398438	104.9206924438477	278.2311706542969	1463.990356445312	73.60258483886719	381.7356567382812	1455.691772460938	110.6254501342773	447.9889526367188	1330.338256835938	54.60012054443359	514.8771362304688	1123.036254882812	71.52803802490234	433.5185241699219	1087.78076171875	58.95973587036133	583.050537109375	924.9265747070312	222.9981689453125	591.2857055664062	887.568359375	137.4719390869141	557.266357421875	1020.421936035156	95.29933166503906	618.7157592773438	754.9085083007812	282.8735961914062	614.9273071289062	828.1689453125	171.8347320556641	626.6797485351562	858.4019165039062	237.6022033691406	53.74104690551758	1453.997436523438	257.551513671875	-14.78336048126221	1386.03125	262.3336791992188	-68.37615966796875	1100.875122070312	241.3367614746094	25.46661758422852	1093.947998046875	209.0093078613281	-21.8758373260498	860.3248901367188	345.0538024902344	-89.43658447265625	853.0732421875	285.0798645019531	-82.71823120117188	1027.730102539062	262.6970520019531	-3.636632919311523	667.7487182617188	323.648193359375	-25.09934616088867	761.661865234375	357.9390258789062	-82.16009521484375	767.4923095703125	300.7913818359375	142.4096832275391	1637.229370117188	204.6703948974609	306.2787780761719	1690.78125	337.1925964355469	184.3658599853516	1674.477416992188	371.1103515625	270.1015319824219	1662.99072265625	162.8647155761719	363.7166442871094	971.557861328125	86.46268463134766	90.21601104736328	976.7577514648438	337.0302429199219	179.7231597900391	1004.43310546875	372.6947631835938	392.6057434082031	1002.174865722656	225.6648559570312	289.4705505371094	491.6966857910156	32.10027694702148	331.6475830078125	630.740234375	52.83445358276367	118.9902496337891	91.39340972900391	-184.7020111083984	216.7885131835938	299.2720642089844	-79.48343658447266	238.2245483398438	38.78750991821289	-22.08822631835938	172.7376708984375	41.24347686767578	-20.36456680297852	211.1761169433594	42.50347137451172	-141.2631988525391	37.20077133178711	117.8424987792969	-172.2346496582031	214.4272613525391	508.8776550292969	463.0386047363281	142.5542449951172	768.1571655273438	431.45849609375	294.6329040527344	25.5362548828125	500.3289489746094	254.9545593261719	400.1784057617188	495.3123474121094	376.585205078125	100.1580581665039	684.7710571289062	409.611328125	83.29074859619141	628.1074829101562	293.4189758300781	42.56967926025391	613.0819702148438	345.9206237792969	26.46771812438965	432.6993408203125	
339	3.38	109.3477249145508	1017.179870605469	148.1956481933594	213.723876953125	1024.921752929688	79.90769958496094	161.310546875	1057.63623046875	114.245475769043	289.039306640625	1268.283813476562	343.8999938964844	156.1309051513672	1215.869018554688	73.83872985839844	193.4196166992188	1484.422973632812	134.9665222167969	279.0682983398438	1382.128173828125	317.6594543457031	70.18992614746094	1306.392211914062	115.3112716674805	282.6101989746094	1465.132934570312	84.09739685058594	386.1160583496094	1457.0419921875	121.4265441894531	451.8778076171875	1331.2392578125	65.21202850341797	516.7254028320312	1123.222045898438	81.42761993408203	435.0677185058594	1088.947143554688	69.41781616210938	584.0083618164062	924.397216796875	232.3211517333984	591.2607421875	886.9473876953125	146.7228698730469	558.2828979492188	1020.213745117188	104.8186264038086	618.2224731445312	754.0282592773438	292.0139465332031	614.4280395507812	827.267333984375	180.9673309326172	626.9681396484375	857.3782348632812	246.6653900146484	57.64972686767578	1455.209228515625	267.4513854980469	-10.86574459075928	1387.246826171875	272.1175537109375	-64.33613586425781	1102.207275390625	250.7426910400391	29.24246978759766	1095.211181640625	218.5544586181641	-18.90136909484863	861.4342651367188	353.6023864746094	-86.31233215332031	854.4249877929688	293.5028381347656	-78.97816467285156	1029.12353515625	271.8301391601562	-1.250071883201599	668.6538696289062	331.3793640136719	-22.55051803588867	762.4115600585938	366.0081787109375	-79.41307830810547	768.7759399414062	308.7465515136719	145.9962310791016	1638.443603515625	214.1578063964844	309.552490234375	1692.929321289062	346.6547546386719	187.6001892089844	1676.49609375	380.4307250976562	273.6879272460938	1664.308227539062	172.4294891357422	369.2197570800781	972.3726806640625	98.55548858642578	95.18429565429688	979.2318725585938	348.4305419921875	184.6585998535156	1006.580078125	384.2565307617188	397.7239074707031	1003.430969238281	237.7671508789062	297.2532958984375	492.2978515625	42.85832595825195	338.4529418945312	631.6106567382812	64.34467315673828	121.304817199707	97.34806823730469	-181.6298675537109	222.2276916503906	302.4480285644531	-72.47758483886719	238.3162231445312	39.08234405517578	-22.31731033325195	173.5924530029297	41.39421081542969	-19.3175106048584	212.2044067382812	44.42441558837891	-140.0427856445312	40.38364791870117	125.9013977050781	-167.7752990722656	218.8198852539062	509.9284973144531	471.8996276855469	147.2739715576172	769.8839111328125	442.6126708984375	294.7040100097656	26.05166244506836	500.9000244140625	259.0862731933594	400.2578430175781	502.8644104003906	378.8663940429688	94.46096038818359	687.7596435546875	411.4175109863281	78.49270629882812	630.7088623046875	294.3810119628906	40.85407257080078	614.391845703125	346.470703125	27.68900871276855	433.6909484863281	
340	3.39	114.7356185913086	1019.011474609375	159.4856262207031	219.4128265380859	1026.172241210938	91.79079437255859	166.6891326904297	1059.105590820312	125.5460510253906	293.0744934082031	1270.358764648438	355.1023254394531	161.3731079101562	1216.910888671875	84.63831329345703	197.6481323242188	1485.7421875	145.1618957519531	282.9060363769531	1384.033081054688	328.3857421875	74.85454559326172	1307.373413085938	125.6722717285156	287.0172729492188	1466.465698242188	94.63273620605469	390.4684448242188	1458.514038085938	132.3560791015625	455.785888671875	1332.31787109375	75.97268676757812	518.394287109375	1123.571899414062	91.44284057617188	436.4103698730469	1090.323974609375	80.00392913818359	584.660888671875	923.7684326171875	241.4580841064453	590.87890625	886.3619384765625	155.7436218261719	559.0386352539062	1020.125732421875	114.3126907348633	617.25830078125	752.9191284179688	300.68701171875	613.516845703125	826.3330688476562	189.7567596435547	626.892333984375	856.194091796875	255.4363098144531	61.5147705078125	1456.625	277.2873840332031	-6.993282318115234	1388.673706054688	281.8475952148438	-60.35934448242188	1103.739013671875	260.3146057128906	32.97185134887695	1096.655395507812	228.2501373291016	-15.92928886413574	862.7517700195312	362.5576477050781	-83.19744873046875	856.0177001953125	302.3222045898438	-75.26194000244141	1030.727661132812	281.2054748535156	1.155042886734009	669.8491821289062	339.666015625	-19.97152900695801	763.4923095703125	374.5586853027344	-76.6490478515625	770.3060913085938	317.1858825683594	149.5453338623047	1639.81591796875	223.7143859863281	312.8112487792969	1695.218505859375	356.1742858886719	190.8018035888672	1678.631469726562	389.8656005859375	277.2388000488281	1665.784790039062	182.0791625976562	374.7082824707031	973.290771484375	110.7524566650391	99.99485015869141	981.9241943359375	359.7650146484375	189.409912109375	1009.010314941406	395.778076171875	402.6847229003906	1004.868408203125	249.9647064208984	305.7008361816406	492.731689453125	54.27124404907227	345.622802734375	632.3963012695312	76.40762329101562	123.794921875	103.6716003417969	-177.8771362304688	228.1938018798828	305.6400451660156	-64.85363006591797	238.3922729492188	39.32024383544922	-22.5921573638916	174.5810546875	41.50879287719727	-18.07458686828613	213.3688507080078	46.67621994018555	-138.5848693847656	43.92594528198242	134.2606506347656	-162.3477020263672	223.1737060546875	511.1687316894531	480.8696594238281	151.8766021728516	771.8027954101562	453.6440734863281	294.7720336914062	26.56838989257812	501.5597229003906	263.1365661621094	400.4672241210938	510.3746948242188	381.369384765625	89.34466552734375	690.2265625	413.2966613769531	74.2427978515625	632.7288818359375	295.4128112792969	39.67693328857422	615.65283203125	346.7293090820312	28.81084823608398	434.613525390625	
341	3.4	120.0781860351562	1020.975036621094	170.64892578125	225.0960693359375	1027.577270507812	103.5849761962891	172.0408935546875	1060.7255859375	136.7207794189453	296.972412109375	1272.589477539062	366.2810668945312	166.6077423095703	1218.101928710938	95.37864685058594	201.8783416748047	1487.196411132812	155.3283996582031	286.6402282714844	1386.107788085938	339.0971374511719	79.53260803222656	1308.507202148438	135.972412109375	291.44189453125	1467.950927734375	105.1622772216797	394.7886047363281	1460.104248046875	143.355224609375	459.726806640625	1333.568359375	86.85045623779297	519.9002075195312	1124.08935546875	101.5771560668945	437.5595703125	1091.892944335938	90.72312164306641	585.0262451171875	923.0503540039062	250.4189453125	590.1853637695312	885.8350219726562	164.5443420410156	559.559814453125	1020.166381835938	123.7934112548828	615.8478393554688	751.5930786132812	308.8906860351562	612.25439453125	825.3961181640625	198.210693359375	626.4761352539062	854.8690185546875	263.9213256835938	65.33250427246094	1458.223876953125	287.0086975097656	-3.163918972015381	1390.292114257812	291.4774475097656	-56.44355010986328	1105.453735351562	270.0240783691406	36.70883941650391	1098.26318359375	238.1151123046875	-12.98264789581299	864.2720947265625	371.9187927246094	-80.0906982421875	857.8316650390625	311.5394897460938	-71.57271575927734	1032.527587890625	290.8024291992188	3.600650310516357	671.3162231445312	348.5122680664062	-17.35380744934082	764.8880615234375	383.601806640625	-73.8624267578125	772.0601806640625	326.1210632324219	153.0556335449219	1641.321899414062	233.3215179443359	316.0672912597656	1697.60400390625	365.7341613769531	193.9697875976562	1680.833129882812	399.3933715820312	280.7579040527344	1667.399536132812	191.7995300292969	380.1545715332031	974.30078125	122.9993057250977	104.6016464233398	984.73095703125	370.9794921875	193.9281311035156	1011.650695800781	407.2096557617188	407.4410400390625	1006.454406738281	262.199951171875	314.8272705078125	492.9649658203125	66.33139801025391	353.1717224121094	633.0519409179688	88.99185180664062	126.5118179321289	110.3718185424805	-173.3866577148438	234.7202453613281	308.8144226074219	-56.59067916870117	238.4915924072266	39.44216537475586	-22.85609245300293	175.7384185791016	41.60638046264648	-16.62759780883789	214.675048828125	49.27889633178711	-136.8443908691406	47.90191268920898	142.8731994628906	-155.9130706787109	227.4429321289062	512.4811401367188	489.8243408203125	156.3668212890625	773.8383178710938	464.514892578125	294.8490600585938	27.07518196105957	502.272705078125	267.0783386230469	400.7284240722656	517.7660522460938	383.9974670410156	84.82199859619141	692.183349609375	415.2001647949219	70.54180145263672	634.209716796875	296.4918823242188	38.97531890869141	616.8327026367188	346.7445678710938	29.78371238708496	435.4324645996094	
